<?xml version="1.0" standalone="no"?>
<!DOCTYPE svg PUBLIC "-//W3C//DTD SVG 20010904//EN"
 "http://www.w3.org/TR/2001/REC-SVG-20010904/DTD/svg10.dtd">
<svg version="1.0" xmlns="http://www.w3.org/2000/svg"
 width="512.000000pt" height="512.000000pt" viewBox="0 0 512.000000 512.000000"
 preserveAspectRatio="xMidYMid meet">
<metadata>
Created by potrace 1.14, written by Peter Selinger 2001-2017
</metadata>
<g transform="translate(0.000000,512.000000) scale(0.100000,-0.100000)"
fill="#000000" stroke="none">
<path d="M3710 4710 c-45 -8 -77 -26 -106 -59 -53 -60 -50 37 -49 -2001 0
-1892 0 -1895 21 -1940 67 -147 280 -138 338 14 15 39 16 215 14 1952 l-3
1909 -22 35 c-42 68 -118 103 -193 90z"/>
<path d="M1309 4503 c-50 -21 -86 -60 -104 -113 -14 -41 -15 -236 -13 -1751
l3 -1704 23 -40 c62 -108 215 -125 299 -33 51 56 49 -19 48 1810 l-1 1703 -21
41 c-43 81 -151 122 -234 87z"/>
<path d="M3100 3918 c-52 -15 -86 -43 -112 -96 l-24 -47 1 -1120 c1 -1052 2
-1122 18 -1156 75 -152 290 -139 341 20 13 40 15 202 13 1161 l-2 1115 -30 44
c-48 70 -126 100 -205 79z"/>
<path d="M714 3714 c-41 -17 -91 -75 -104 -121 -8 -27 -10 -311 -8 -958 l3
-920 27 -41 c65 -100 215 -111 294 -22 50 56 49 29 48 1013 l0 920 -22 42
c-43 83 -153 123 -238 87z"/>
<path d="M1940 3530 c-69 -12 -110 -46 -140 -115 -17 -37 -18 -92 -19 -740 0
-467 4 -716 11 -749 12 -57 66 -116 120 -133 65 -19 149 3 191 51 54 61 52 22
52 816 l0 735 -23 40 c-39 68 -119 108 -192 95z"/>
<path d="M4305 3529 c-81 -18 -129 -61 -149 -130 -9 -34 -12 -214 -11 -759 l1
-716 26 -44 c80 -138 283 -119 333 30 14 41 15 137 13 771 l-3 724 -23 37
c-39 61 -125 102 -187 87z"/>
<path d="M120 3122 c-44 -22 -75 -56 -95 -107 -14 -35 -16 -89 -13 -375 l3
-335 27 -41 c65 -100 217 -111 293 -22 47 54 49 73 49 413 -1 176 -3 329 -5
340 -8 37 -49 94 -85 116 -46 28 -127 33 -174 11z"/>
<path d="M2485 3121 c-22 -10 -50 -29 -62 -42 -48 -52 -51 -83 -50 -435 2
-325 2 -329 25 -370 60 -103 203 -126 286 -45 62 60 63 73 62 437 -1 313 -2
331 -22 369 -45 86 -153 125 -239 86z"/>
<path d="M4880 3133 c-70 -22 -108 -59 -129 -121 -14 -40 -16 -98 -15 -367 0
-308 1 -322 22 -362 32 -62 80 -94 150 -100 66 -6 111 11 150 56 51 60 53 71
52 422 l-1 327 -25 50 c-20 41 -35 56 -77 76 -48 24 -92 31 -127 19z"/>
</g>
</svg>
