<svg width="24" height="25" xmlns="http://www.w3.org/2000/svg">

 <g>
  <title>background</title>
  <rect fill="none" id="canvas_background" height="27" width="26" y="-1" x="-1"/>
 </g>
 <g>
  <title>Layer 1</title>
  <path stroke="null" id="svg_1" fill="#EAF0FF" d="m2.169165,1.852637l1.29057,-1.18494c-0.634733,-0.35112 -1.494608,-0.41405 -2.21624,-0.16221c-0.721632,0.25184 -1.179114,0.77451 -1.179114,1.34715l2.104785,0zm0,21.12982l-2.104785,0c0,0.5727 0.457482,1.0953 1.179114,1.3472c0.721632,0.2518 1.581507,0.1889 2.21624,-0.1622l-1.29057,-1.185zm19.098845,-10.5649l1.290654,1.1849c0.513567,-0.2841 0.814131,-0.7215 0.814131,-1.1849c0,-0.4634 -0.300563,-0.9008 -0.814131,-1.1849l-1.290654,1.1849zm-21.203629,-10.56492l0,21.12982l4.209569,0l0,-21.12982l-4.209569,0zm3.395355,22.31482l19.098929,-10.565l-2.581168,-2.3698l-19.098915,10.5649l2.581154,2.3699zm19.098929,-12.9348l-19.098929,-10.56496l-2.581154,2.36987l19.098915,10.56489l2.581168,-2.3698zm10.246653,-10.43652l0,23.24282l4.209569,0l0,-23.24282l-4.209569,0z"/>
 </g>
</svg>