<svg width="14" height="14" viewBox="0 0 14 14" fill="none" xmlns="http://www.w3.org/2000/svg">
<path d="M12.1961 4.98279C12.1961 5.2038 12.2839 5.41577 12.4402 5.57205C12.5965 5.72833 12.8084 5.81612 13.0294 5.81612C13.2504 5.81612 13.4624 5.72833 13.6187 5.57205C13.775 5.41577 13.8628 5.2038 13.8628 4.98279V1.39112C13.8628 1.17011 13.775 0.958149 13.6187 0.801869C13.4624 0.645588 13.2504 0.557791 13.0294 0.557791H9.4461C9.22508 0.557791 9.01312 0.645588 8.85684 0.801869C8.70056 0.958149 8.61276 1.17011 8.61276 1.39112C8.61276 1.61214 8.70056 1.8241 8.85684 1.98038C9.01312 2.13666 9.22508 2.22446 9.4461 2.22446H11.0211L7.1961 6.04946L2.32943 1.19112C2.17001 1.0546 1.96495 0.983263 1.75522 0.991364C1.54549 0.999465 1.34654 1.08641 1.19813 1.23482C1.04971 1.38323 0.962771 1.58218 0.95467 1.79191C0.946569 2.00164 1.01791 2.20671 1.15443 2.36612L6.01276 7.22446L0.771096 12.4661C0.692989 12.5436 0.630994 12.6358 0.588686 12.7373C0.546379 12.8389 0.524597 12.9478 0.524597 13.0578C0.524597 13.1678 0.546379 13.2767 0.588686 13.3783C0.630994 13.4798 0.692989 13.572 0.771096 13.6495C0.848565 13.7276 0.940732 13.7896 1.04228 13.8319C1.14383 13.8742 1.25275 13.896 1.36276 13.896C1.47277 13.896 1.58169 13.8742 1.68324 13.8319C1.78479 13.7896 1.87696 13.7276 1.95443 13.6495L12.1961 3.40779V4.98279Z" fill="#8996B8" fill-opacity="0.6"/>
<path d="M13.0294 8.62446C12.8084 8.62446 12.5965 8.71225 12.4402 8.86853C12.2839 9.02481 12.1961 9.23678 12.1961 9.45779V11.0495L9.87943 8.72446C9.72251 8.56754 9.50968 8.47938 9.28776 8.47938C9.06585 8.47938 8.85302 8.56754 8.6961 8.72446C8.53918 8.88138 8.45102 9.09421 8.45102 9.31612C8.45102 9.53804 8.53918 9.75087 8.6961 9.90779L11.0044 12.2245H9.43776C9.21675 12.2245 9.00479 12.3123 8.84851 12.4685C8.69223 12.6248 8.60443 12.8368 8.60443 13.0578C8.60443 13.2788 8.69223 13.4908 8.84851 13.647C9.00479 13.8033 9.21675 13.8911 9.43776 13.8911H13.0294C13.147 13.8918 13.2634 13.8677 13.371 13.8202C13.4786 13.7727 13.5749 13.703 13.6536 13.6156C13.7323 13.5282 13.7917 13.4252 13.8277 13.3132C13.8638 13.2013 13.8757 13.083 13.8628 12.9661V9.45779C13.8628 9.23678 13.775 9.02481 13.6187 8.86853C13.4624 8.71225 13.2504 8.62446 13.0294 8.62446Z" fill="#8996B8" fill-opacity="0.6"/>
</svg>
